<svg id="svg" version="1.1" xmlns="http://www.w3.org/2000/svg" xmlns:xlink="http://www.w3.org/1999/xlink" width="80" height="41" viewBox="0, 0, 400,208.1447963800905"><g id="svgg"><path id="path0" d="M171.266 25.399 C 171.130 25.829,171.783 27.105,173.562 29.880 C 174.075 30.682,174.557 31.478,174.633 31.650 C 174.709 31.822,175.036 32.354,175.360 32.833 C 175.685 33.312,175.950 33.762,175.950 33.833 C 175.950 33.905,176.325 34.515,176.783 35.190 C 177.241 35.865,177.616 36.472,177.616 36.540 C 177.616 36.609,177.789 36.918,178.002 37.229 C 178.821 38.426,180.331 40.818,181.907 43.414 C 182.811 44.903,184.176 47.152,184.940 48.412 C 187.966 53.400,188.644 54.503,191.272 58.719 C 192.378 60.495,193.987 63.118,194.847 64.550 C 195.707 65.981,196.653 67.514,196.949 67.957 C 197.244 68.399,197.583 68.934,197.702 69.146 C 198.119 69.889,201.464 75.392,202.029 76.265 C 202.344 76.750,202.720 77.382,202.865 77.668 C 203.010 77.954,203.398 78.610,203.728 79.125 C 205.460 81.832,206.055 82.781,208.353 86.498 C 208.912 87.403,209.596 88.365,209.873 88.636 L 210.376 89.128 210.836 88.696 C 211.206 88.348,213.155 85.436,214.159 83.729 C 214.274 83.534,215.170 82.161,216.152 80.678 C 217.133 79.194,218.268 77.465,218.673 76.835 C 220.405 74.143,220.619 73.805,220.719 73.607 C 220.777 73.493,221.187 72.837,221.631 72.150 C 222.075 71.463,222.739 70.432,223.106 69.859 C 223.474 69.287,224.414 67.834,225.195 66.632 C 225.977 65.429,226.941 63.930,227.338 63.300 C 227.735 62.670,228.458 61.546,228.944 60.802 C 233.131 54.384,233.953 53.173,234.336 52.852 C 234.856 52.417,268.655 52.259,269.457 52.688 C 269.990 52.973,269.965 53.437,269.368 54.336 C 269.098 54.742,268.423 55.778,267.869 56.637 C 267.314 57.496,266.809 58.246,266.746 58.303 C 266.683 58.360,266.073 59.250,265.390 60.281 C 264.707 61.312,264.098 62.202,264.036 62.259 C 263.830 62.452,262.064 65.030,256.886 72.697 C 252.681 78.923,249.316 83.858,246.184 88.391 C 245.313 89.651,242.885 93.232,240.787 96.348 C 238.689 99.464,236.531 102.650,235.991 103.427 C 235.451 104.205,234.815 105.122,234.579 105.466 C 234.342 105.809,234.102 106.137,234.045 106.195 C 233.987 106.252,232.495 108.454,230.729 111.088 C 228.964 113.722,227.136 116.438,226.669 117.124 L 225.820 118.371 225.766 150.594 C 225.712 182.656,225.714 182.820,226.131 183.237 C 226.781 183.887,336.345 183.797,336.821 183.146 C 337.289 182.505,337.259 156.550,336.789 156.079 C 336.494 155.784,332.552 155.752,296.511 155.752 C 271.057 155.752,256.366 155.679,256.026 155.549 C 255.374 155.301,255.320 154.611,255.877 153.624 C 256.251 152.962,256.600 152.405,259.032 148.582 C 259.662 147.592,260.318 146.560,260.489 146.290 C 260.661 146.020,261.253 145.064,261.805 144.165 C 262.358 143.266,263.388 141.615,264.096 140.498 C 264.804 139.380,266.127 137.272,267.037 135.813 C 269.023 132.627,270.284 130.639,271.294 129.099 C 271.708 128.470,272.083 127.865,272.129 127.757 C 272.175 127.648,272.669 126.852,273.227 125.987 C 273.785 125.122,274.331 124.274,274.442 124.102 C 274.923 123.353,277.075 119.926,277.841 118.688 C 278.302 117.944,279.068 116.726,279.544 115.981 C 280.020 115.237,280.678 114.159,281.007 113.587 C 281.335 113.014,281.661 112.499,281.731 112.441 C 281.801 112.384,282.221 111.728,282.665 110.984 C 283.109 110.239,283.535 109.584,283.610 109.526 C 283.686 109.469,283.870 109.188,284.018 108.902 C 284.333 108.295,286.701 104.539,288.285 102.134 C 288.888 101.218,289.868 99.672,290.463 98.699 C 291.057 97.725,292.099 96.057,292.779 94.992 C 293.458 93.927,294.014 93.020,294.014 92.977 C 294.014 92.933,294.370 92.352,294.805 91.686 C 295.672 90.359,296.194 89.536,298.074 86.526 C 300.057 83.351,302.294 79.875,302.517 79.623 C 302.629 79.496,302.916 79.028,303.155 78.582 C 303.393 78.137,303.988 77.144,304.475 76.377 C 305.887 74.157,308.371 70.187,309.272 68.714 C 309.727 67.970,310.493 66.752,310.974 66.007 C 311.455 65.263,312.122 64.214,312.457 63.675 C 313.016 62.778,313.956 61.297,316.464 57.366 C 316.975 56.564,317.599 55.580,317.851 55.180 C 318.102 54.779,318.730 53.795,319.246 52.993 C 321.253 49.876,321.663 49.224,321.994 48.621 C 322.458 47.775,322.765 47.285,323.321 46.500 C 323.579 46.136,323.790 45.774,323.790 45.696 C 323.790 45.619,324.211 44.952,324.727 44.215 C 325.242 43.478,325.664 42.809,325.664 42.728 C 325.664 42.648,326.039 42.042,326.497 41.383 C 326.955 40.723,327.330 40.129,327.330 40.063 C 327.330 39.997,327.601 39.553,327.933 39.076 C 328.617 38.092,330.086 35.818,330.244 35.498 C 330.302 35.381,330.686 34.772,331.098 34.144 C 331.511 33.517,332.456 32.020,333.199 30.817 C 333.943 29.615,334.948 28.003,335.434 27.235 C 335.920 26.467,336.285 25.671,336.245 25.465 C 336.126 24.847,171.463 24.781,171.266 25.399 " stroke="none" fill="#f9f9f9" fill-rule="evenodd"></path><path id="path1" d="M58.961 25.587 C 58.568 25.835,58.518 25.754,63.964 33.628 C 64.519 34.430,65.322 35.600,65.750 36.229 C 66.178 36.857,67.090 38.138,67.777 39.076 C 68.464 40.013,69.448 41.404,69.964 42.167 C 70.479 42.929,71.006 43.667,71.134 43.807 C 71.262 43.946,71.522 44.336,71.711 44.674 C 71.900 45.012,72.374 45.711,72.765 46.226 C 73.156 46.741,73.482 47.242,73.490 47.339 C 73.497 47.435,73.925 48.069,74.440 48.747 C 74.956 49.424,75.377 50.020,75.377 50.070 C 75.377 50.250,76.622 52.001,76.934 52.260 C 77.108 52.405,77.251 52.608,77.251 52.710 C 77.251 52.813,77.673 53.434,78.188 54.090 C 78.704 54.747,79.125 55.393,79.125 55.527 C 79.125 55.660,79.201 55.801,79.292 55.839 C 79.487 55.920,80.904 57.878,82.977 60.930 C 83.435 61.604,83.863 62.202,83.928 62.259 C 84.133 62.439,85.372 64.306,85.372 64.435 C 85.372 64.502,85.794 65.095,86.309 65.751 C 86.824 66.407,87.246 67.017,87.246 67.107 C 87.246 67.196,87.598 67.723,88.027 68.278 C 88.739 69.198,89.296 70.046,89.846 71.047 C 89.959 71.253,90.117 71.421,90.197 71.421 C 90.277 71.421,90.554 71.796,90.811 72.254 C 91.069 72.712,91.356 73.087,91.449 73.087 C 91.543 73.087,91.619 73.189,91.619 73.314 C 91.619 73.439,91.814 73.791,92.053 74.095 C 92.446 74.596,94.137 76.978,94.792 77.955 C 94.937 78.170,95.665 79.200,96.412 80.245 C 97.854 82.264,97.945 82.394,99.480 84.620 C 100.991 86.812,102.186 88.575,102.547 89.143 C 102.663 89.327,103.040 89.879,103.384 90.371 C 103.727 90.863,104.102 91.414,104.217 91.596 C 104.331 91.779,104.823 92.468,105.310 93.129 C 105.796 93.790,106.195 94.384,106.195 94.449 C 106.195 94.515,106.510 94.959,106.895 95.436 C 107.281 95.913,107.987 96.866,108.466 97.553 C 108.944 98.240,109.653 99.224,110.041 99.740 C 110.430 100.255,110.754 100.794,110.762 100.937 C 110.769 101.080,110.867 101.197,110.979 101.197 C 111.914 101.197,112.023 104.392,111.110 105.059 C 110.926 105.193,110.776 105.359,110.776 105.427 C 110.776 105.566,108.899 108.181,108.395 108.745 C 108.215 108.946,108.069 109.156,108.069 109.211 C 108.069 109.429,106.514 111.609,106.359 111.609 C 106.269 111.609,106.195 111.735,106.195 111.889 C 106.195 112.043,106.007 112.338,105.778 112.546 C 105.549 112.753,105.362 113.035,105.362 113.172 C 105.362 113.309,105.135 113.667,104.857 113.966 C 104.580 114.265,104.293 114.701,104.219 114.933 C 104.145 115.166,103.994 115.357,103.884 115.357 C 103.773 115.357,103.623 115.521,103.551 115.721 C 103.432 116.047,102.293 117.801,102.030 118.064 C 101.930 118.163,100.667 120.002,99.901 121.163 C 99.222 122.194,99.010 122.496,98.586 123.038 C 98.353 123.337,97.427 124.681,96.529 126.025 C 95.632 127.368,94.769 128.575,94.612 128.705 C 94.454 128.835,94.326 129.031,94.326 129.139 C 94.326 129.362,93.383 130.682,92.824 131.242 C 92.619 131.447,92.452 131.704,92.452 131.814 C 92.452 131.925,92.288 132.190,92.087 132.405 C 91.887 132.620,91.301 133.428,90.786 134.201 C 90.271 134.974,89.685 135.782,89.485 135.997 C 89.284 136.212,89.120 136.443,89.120 136.511 C 89.120 136.580,88.909 136.929,88.652 137.288 C 88.394 137.647,88.090 138.094,87.975 138.282 C 87.799 138.572,86.701 140.233,85.737 141.669 C 85.594 141.883,85.306 142.280,85.098 142.552 C 84.890 142.825,84.226 143.774,83.622 144.663 C 81.558 147.699,81.391 147.935,81.224 148.043 C 81.133 148.103,80.910 148.440,80.730 148.792 C 80.549 149.144,80.118 149.737,79.771 150.108 C 79.423 150.480,78.846 151.269,78.488 151.863 C 78.130 152.456,77.374 153.597,76.808 154.399 C 76.243 155.200,75.203 156.723,74.499 157.782 C 73.794 158.842,73.141 159.708,73.048 159.708 C 72.955 159.708,72.879 159.801,72.879 159.914 C 72.879 160.205,71.367 162.415,71.169 162.415 C 71.079 162.415,71.005 162.553,71.005 162.721 C 71.005 162.888,70.739 163.333,70.415 163.710 C 70.091 164.086,69.766 164.558,69.693 164.758 C 69.620 164.958,69.464 165.122,69.345 165.122 C 69.227 165.122,69.131 165.247,69.131 165.398 C 69.131 165.550,68.709 166.217,68.194 166.881 C 67.678 167.545,67.257 168.147,67.256 168.219 C 67.256 168.291,67.045 168.603,66.788 168.912 C 66.530 169.222,65.898 170.098,65.383 170.859 C 64.867 171.621,64.235 172.483,63.977 172.774 C 63.719 173.065,63.509 173.434,63.509 173.592 C 63.509 173.751,63.368 173.935,63.196 174.001 C 63.024 174.067,62.884 174.240,62.884 174.385 C 62.884 174.531,62.741 174.768,62.566 174.914 C 62.254 175.172,61.010 176.923,61.010 177.103 C 61.010 177.154,60.612 177.735,60.125 178.396 C 59.638 179.057,59.146 179.748,59.032 179.932 C 58.917 180.115,58.479 180.758,58.059 181.361 C 56.648 183.381,55.724 183.275,74.133 183.197 L 89.026 183.134 89.556 182.613 C 90.030 182.149,90.422 181.628,91.105 180.555 C 91.223 180.370,91.690 179.656,92.144 178.969 C 92.597 178.282,93.063 177.563,93.178 177.372 C 93.534 176.783,97.953 170.230,98.069 170.120 C 98.129 170.062,98.371 169.735,98.608 169.391 C 98.844 169.047,99.494 168.110,100.052 167.309 C 100.609 166.507,101.538 165.148,102.116 164.289 C 102.693 163.431,103.214 162.681,103.275 162.624 C 103.612 162.302,105.778 158.911,105.778 158.705 C 105.778 158.570,105.861 158.459,105.963 158.459 C 106.064 158.459,106.536 157.827,107.012 157.054 C 107.488 156.281,108.434 154.852,109.113 153.878 C 109.793 152.905,110.447 151.968,110.567 151.796 C 110.761 151.519,111.294 150.708,111.925 149.730 C 112.042 149.549,112.381 149.025,112.678 148.565 C 112.975 148.106,113.371 147.602,113.558 147.447 C 113.746 147.291,113.899 147.086,113.899 146.992 C 113.899 146.897,114.204 146.383,114.576 145.850 C 114.948 145.316,115.393 144.670,115.565 144.414 C 115.737 144.158,116.111 143.619,116.398 143.215 C 117.750 141.307,119.862 138.199,120.966 136.491 C 121.189 136.148,121.470 135.754,121.591 135.615 C 121.712 135.477,121.812 135.303,121.812 135.229 C 121.812 135.155,122.093 134.739,122.436 134.305 C 122.780 133.871,123.061 133.469,123.061 133.410 C 123.061 133.289,125.997 128.841,126.181 128.683 C 126.248 128.626,126.649 128.064,127.071 127.434 C 129.759 123.427,130.459 123.004,131.658 124.665 C 132.594 125.962,133.660 127.497,134.087 128.162 C 134.308 128.506,134.564 128.881,134.657 128.995 C 134.750 129.110,135.200 129.766,135.659 130.453 C 136.117 131.140,136.540 131.749,136.598 131.806 C 136.657 131.864,137.079 132.472,137.535 133.158 C 137.992 133.845,138.483 134.531,138.626 134.683 C 138.769 134.835,138.886 135.046,138.886 135.153 C 138.886 135.259,139.073 135.534,139.302 135.763 C 139.531 135.992,139.719 136.320,139.719 136.491 C 139.719 136.663,139.792 136.804,139.882 136.804 C 139.972 136.804,140.222 137.108,140.439 137.480 C 140.655 137.853,140.956 138.232,141.108 138.324 C 141.260 138.415,141.385 138.580,141.385 138.690 C 141.385 138.800,141.642 139.253,141.957 139.696 C 142.801 140.884,142.919 141.062,144.607 143.675 C 145.458 144.992,146.299 146.218,146.476 146.400 C 146.654 146.581,146.799 146.787,146.799 146.857 C 146.799 146.992,149.591 151.124,150.982 153.045 C 151.753 154.111,153.366 156.442,154.086 157.532 C 154.258 157.792,155.172 159.142,156.117 160.532 C 157.061 161.923,157.834 163.103,157.834 163.155 C 157.834 163.208,158.277 163.882,158.817 164.655 C 159.809 166.072,161.630 168.725,162.207 169.592 C 162.866 170.583,164.532 172.992,165.524 174.388 C 166.093 175.190,166.717 176.127,166.911 176.471 C 167.104 176.814,167.324 177.142,167.398 177.199 C 167.527 177.299,169.443 180.113,170.526 181.795 C 171.422 183.186,170.929 183.134,183.069 183.134 C 192.630 183.134,194.107 183.093,194.279 182.821 C 194.404 182.626,194.459 170.470,194.428 150.338 L 194.378 118.168 192.972 116.035 C 192.199 114.862,191.567 113.819,191.567 113.718 C 191.567 113.616,191.431 113.421,191.265 113.283 C 191.099 113.145,190.664 112.501,190.300 111.852 C 189.935 111.203,189.578 110.625,189.507 110.567 C 189.391 110.474,188.487 109.150,187.926 108.250 C 187.810 108.064,187.246 107.229,186.674 106.395 C 186.101 105.562,185.101 104.074,184.452 103.090 C 183.802 102.106,183.193 101.205,183.098 101.088 C 182.675 100.565,181.572 98.932,181.572 98.827 C 181.572 98.764,181.212 98.170,180.773 97.508 C 178.542 94.148,178.032 93.344,178.032 93.183 C 178.032 93.086,177.889 92.859,177.714 92.678 C 177.208 92.154,176.166 90.499,176.162 90.213 C 176.160 90.070,176.078 89.953,175.980 89.953 C 175.881 89.953,175.447 89.368,175.014 88.652 C 174.580 87.936,174.122 87.255,173.995 87.139 C 173.868 87.022,173.623 86.678,173.451 86.374 C 173.280 86.070,172.600 85.030,171.942 84.064 C 171.283 83.097,170.744 82.247,170.744 82.174 C 170.744 82.100,170.593 81.877,170.407 81.676 C 170.106 81.350,167.864 77.999,167.290 77.018 C 167.166 76.804,166.908 76.458,166.718 76.247 C 166.527 76.037,166.372 75.796,166.372 75.712 C 166.372 75.627,166.161 75.260,165.903 74.895 C 165.645 74.530,165.340 74.078,165.226 73.889 C 165.112 73.700,164.723 73.124,164.362 72.607 C 164.001 72.091,163.643 71.472,163.567 71.232 C 163.491 70.993,163.361 70.796,163.279 70.796 C 163.197 70.796,162.954 70.492,162.739 70.120 C 161.876 68.624,160.722 66.855,158.563 63.720 C 157.991 62.889,157.420 62.033,157.295 61.819 C 157.171 61.605,156.913 61.257,156.723 61.047 C 156.533 60.837,156.377 60.605,156.377 60.531 C 156.377 60.407,155.152 58.535,154.919 58.303 C 154.813 58.198,154.288 57.401,153.081 55.514 C 151.775 53.475,151.866 53.423,148.777 57.991 C 148.002 59.136,147.287 60.104,147.188 60.142 C 147.088 60.180,147.007 60.292,147.007 60.391 C 147.007 60.490,145.953 62.150,144.664 64.082 C 143.376 66.013,142.228 67.742,142.113 67.924 C 141.627 68.696,138.190 73.742,137.109 75.273 C 136.461 76.189,135.646 77.384,135.296 77.928 C 134.946 78.472,134.580 78.917,134.482 78.917 C 134.385 78.917,134.305 79.021,134.305 79.147 C 134.305 79.274,134.094 79.640,133.837 79.961 C 133.579 80.282,133.052 81.068,132.665 81.709 C 132.278 82.349,131.880 82.874,131.780 82.874 C 131.680 82.874,131.598 83.000,131.598 83.154 C 131.598 83.565,130.904 84.123,130.392 84.123 C 129.975 84.123,128.267 82.580,128.267 82.204 C 128.267 82.110,127.845 81.455,127.330 80.746 C 126.814 80.038,126.393 79.345,126.393 79.205 C 126.393 79.066,126.322 78.921,126.236 78.883 C 126.026 78.789,124.727 77.105,124.727 76.926 C 124.727 76.848,124.328 76.208,123.842 75.504 C 123.355 74.801,122.863 74.073,122.749 73.887 C 122.554 73.570,120.520 70.496,119.740 69.339 C 119.547 69.053,119.322 68.678,119.241 68.506 C 119.160 68.334,118.630 67.538,118.065 66.736 C 116.829 64.985,113.971 60.783,112.258 58.199 C 111.574 57.168,110.821 56.076,110.583 55.771 C 110.345 55.467,110.151 55.130,110.151 55.023 C 110.151 54.915,109.964 54.658,109.735 54.451 C 109.505 54.244,109.318 53.955,109.318 53.810 C 109.318 53.665,109.084 53.267,108.798 52.927 C 108.511 52.587,108.277 52.205,108.277 52.078 C 108.277 51.952,108.184 51.848,108.072 51.848 C 107.959 51.848,107.725 51.543,107.552 51.171 C 107.380 50.799,106.863 49.979,106.405 49.349 C 105.946 48.719,105.571 48.101,105.570 47.976 C 105.570 47.851,105.383 47.578,105.154 47.371 C 104.925 47.164,104.737 46.876,104.737 46.732 C 104.737 46.587,104.657 46.438,104.560 46.399 C 104.409 46.340,103.742 45.405,102.967 44.165 C 102.853 43.981,102.709 43.784,102.647 43.727 C 102.534 43.622,101.029 41.391,97.520 36.127 C 96.451 34.524,95.506 33.118,95.420 33.004 C 95.131 32.620,94.031 30.983,93.813 30.612 C 93.617 30.278,92.534 28.583,91.874 27.578 C 91.729 27.355,91.413 26.866,91.174 26.491 C 90.934 26.116,90.568 25.718,90.360 25.606 C 89.885 25.353,59.360 25.334,58.961 25.587 " stroke="none" fill="#2b9bf3" fill-rule="evenodd"></path><path id="path2" d="M0.000 104.112 L 0.000 208.225 200.000 208.225 L 400.000 208.225 400.000 104.112 L 400.000 0.000 200.000 0.000 L 0.000 0.000 0.000 104.112 M336.752 24.373 C 337.939 24.703,337.842 25.314,336.193 27.902 C 334.926 29.891,333.746 31.708,332.795 33.133 C 331.649 34.853,331.585 34.953,330.773 36.335 C 330.436 36.908,330.107 37.423,330.042 37.480 C 329.977 37.538,329.807 37.819,329.664 38.105 C 329.522 38.391,329.132 39.047,328.798 39.563 C 328.464 40.078,327.894 41.006,327.532 41.625 C 326.816 42.849,324.648 46.237,323.352 48.159 C 322.906 48.821,322.540 49.421,322.540 49.492 C 322.540 49.564,322.131 50.240,321.630 50.995 C 321.130 51.751,320.365 52.931,319.931 53.618 C 319.498 54.305,318.876 55.270,318.551 55.763 C 318.226 56.255,317.959 56.736,317.959 56.830 C 317.959 56.925,317.823 57.115,317.657 57.253 C 317.491 57.391,317.063 58.022,316.706 58.655 C 316.349 59.288,315.618 60.488,315.082 61.323 C 313.690 63.489,312.422 65.526,311.466 67.129 C 310.883 68.106,311.095 67.770,308.632 71.629 C 308.230 72.259,307.695 73.103,307.443 73.503 C 307.191 73.904,306.246 75.357,305.342 76.731 C 304.438 78.105,303.558 79.480,303.385 79.787 C 303.047 80.387,301.436 83.017,300.131 85.099 C 299.687 85.808,298.808 87.210,298.178 88.215 C 297.548 89.219,296.986 90.139,296.929 90.257 C 296.807 90.511,295.530 92.472,294.394 94.151 C 293.956 94.799,293.597 95.390,293.597 95.464 C 293.597 95.538,293.175 96.202,292.660 96.940 C 292.145 97.677,291.723 98.332,291.723 98.396 C 291.723 98.459,291.101 99.467,290.340 100.635 C 289.579 101.803,288.721 103.134,288.433 103.592 C 288.145 104.050,287.737 104.679,287.526 104.989 C 287.315 105.299,287.142 105.610,287.142 105.680 C 287.142 105.749,286.908 106.113,286.622 106.489 C 286.335 106.864,286.101 107.226,286.101 107.293 C 286.101 107.360,285.750 107.962,285.320 108.632 C 284.891 109.302,284.428 110.034,284.292 110.260 C 284.156 110.487,283.424 111.655,282.665 112.858 C 281.906 114.060,281.174 115.231,281.038 115.460 C 280.902 115.688,280.604 116.155,280.375 116.497 C 279.825 117.317,279.629 117.640,279.089 118.622 C 278.839 119.074,278.488 119.567,278.308 119.717 C 278.128 119.866,277.974 120.094,277.966 120.223 C 277.959 120.352,277.631 120.880,277.238 121.395 C 276.846 121.910,276.434 122.538,276.325 122.789 C 276.215 123.041,275.793 123.719,275.387 124.297 C 274.981 124.874,274.646 125.418,274.643 125.505 C 274.640 125.592,274.359 126.032,274.018 126.482 C 273.678 126.932,273.399 127.372,273.399 127.460 C 273.399 127.549,273.133 128.024,272.808 128.516 C 272.067 129.637,271.030 131.274,269.865 133.160 C 269.370 133.961,268.710 134.992,268.400 135.450 C 268.090 135.908,267.387 137.033,266.837 137.949 C 265.841 139.612,265.268 140.520,263.359 143.467 C 262.803 144.326,262.259 145.169,262.151 145.341 C 262.043 145.513,261.719 146.009,261.430 146.443 C 261.142 146.878,260.906 147.312,260.906 147.407 C 260.906 147.502,260.774 147.690,260.613 147.824 C 260.451 147.958,260.166 148.391,259.978 148.786 C 259.790 149.182,259.554 149.505,259.452 149.505 C 259.351 149.505,259.202 149.716,259.121 149.974 C 259.039 150.232,258.607 150.994,258.160 151.668 C 257.253 153.037,256.672 154.295,256.860 154.483 C 256.928 154.551,275.068 154.654,297.171 154.711 C 336.523 154.813,337.364 154.824,337.651 155.216 C 338.156 155.906,338.176 156.580,338.114 170.190 L 338.053 183.483 337.562 183.881 C 336.900 184.417,226.122 184.518,225.391 183.983 C 224.836 183.577,224.746 118.400,225.299 117.389 C 225.782 116.507,229.493 111.123,230.140 110.367 C 230.284 110.199,230.495 109.911,230.609 109.725 C 231.256 108.679,231.761 107.929,232.000 107.659 C 232.378 107.234,233.212 105.992,233.212 105.855 C 233.212 105.760,234.182 104.315,234.727 103.597 C 234.915 103.350,237.377 99.651,237.692 99.144 C 238.118 98.457,239.145 96.926,239.248 96.825 C 239.378 96.698,239.754 96.156,241.855 93.077 C 242.753 91.760,243.914 90.073,244.435 89.328 C 244.955 88.584,245.993 87.074,246.741 85.972 C 247.488 84.870,248.756 83.016,249.558 81.851 C 250.359 80.687,251.109 79.569,251.223 79.369 C 251.338 79.168,252.181 77.901,253.097 76.553 C 254.014 75.204,254.904 73.891,255.075 73.633 C 255.734 72.646,257.421 70.207,258.551 68.610 C 259.199 67.694,261.335 64.555,263.299 61.635 C 265.262 58.714,267.257 55.768,267.731 55.087 C 268.380 54.155,268.537 53.781,268.368 53.577 C 268.060 53.206,235.720 53.174,235.029 53.544 C 234.504 53.825,233.853 54.562,233.843 54.887 C 233.840 55.012,233.602 55.387,233.316 55.720 C 233.030 56.053,232.796 56.390,232.796 56.471 C 232.795 56.649,231.560 58.509,231.189 58.890 C 231.042 59.042,230.921 59.256,230.921 59.367 C 230.921 59.478,230.742 59.823,230.523 60.133 C 230.174 60.627,228.465 63.280,226.784 65.936 C 223.936 70.436,222.848 72.123,221.187 74.612 C 220.128 76.199,219.261 77.568,219.261 77.655 C 219.261 77.741,219.073 77.981,218.844 78.188 C 218.615 78.396,218.428 78.674,218.428 78.806 C 218.428 78.939,218.261 79.229,218.058 79.451 C 217.854 79.673,217.417 80.323,217.086 80.895 C 216.755 81.468,216.280 82.218,216.029 82.561 C 215.779 82.905,215.512 83.326,215.436 83.498 C 215.360 83.670,215.042 84.208,214.729 84.694 C 214.415 85.179,213.575 86.503,212.861 87.635 C 210.489 91.395,209.901 91.231,206.871 85.969 C 206.757 85.770,206.339 85.062,205.942 84.396 C 205.546 83.731,205.116 82.998,204.988 82.769 C 204.501 81.899,203.337 80.037,202.906 79.438 C 202.658 79.094,202.396 78.673,202.322 78.501 C 202.248 78.329,201.717 77.486,201.143 76.627 C 200.568 75.768,199.982 74.830,199.841 74.544 C 199.699 74.257,199.218 73.460,198.771 72.774 C 197.599 70.973,197.163 70.270,196.061 68.402 C 194.750 66.181,194.881 66.398,193.396 63.978 C 192.676 62.804,191.831 61.446,191.518 60.959 C 191.205 60.471,190.884 59.932,190.805 59.761 C 190.665 59.457,189.165 57.066,188.454 56.012 C 188.261 55.726,188.038 55.351,187.958 55.180 C 187.878 55.008,187.538 54.446,187.204 53.930 C 186.870 53.415,186.260 52.431,185.850 51.744 C 185.440 51.057,184.575 49.651,183.928 48.621 C 183.281 47.590,181.875 45.294,180.803 43.519 C 179.731 41.744,178.768 40.151,178.662 39.979 C 177.118 37.479,175.783 35.280,175.531 34.824 C 175.357 34.510,174.850 33.691,174.403 33.004 C 173.581 31.740,172.887 30.654,171.505 28.471 C 171.087 27.810,170.744 27.216,170.744 27.150 C 170.744 27.084,170.557 26.793,170.328 26.501 C 169.642 25.630,169.766 24.624,170.588 24.387 C 171.572 24.103,335.729 24.089,336.752 24.373 M91.306 25.076 C 91.872 25.676,101.337 39.670,101.595 40.289 C 101.643 40.402,102.072 41.058,102.550 41.746 C 103.549 43.186,110.382 53.317,111.821 55.492 C 112.351 56.294,113.247 57.641,113.811 58.486 C 114.375 59.332,114.930 60.169,115.044 60.346 C 115.969 61.779,122.652 71.729,125.551 75.988 C 125.751 76.282,126.795 77.856,127.871 79.486 C 129.477 81.918,129.918 82.450,130.326 82.453 C 130.973 82.458,130.288 83.403,138.709 70.901 C 141.661 66.517,145.398 61.016,146.488 59.448 C 147.045 58.647,148.222 56.913,149.103 55.596 C 152.118 51.090,151.554 50.788,157.461 60.073 C 158.117 61.104,158.749 62.087,158.866 62.259 C 159.580 63.306,168.365 76.589,170.513 79.870 C 171.932 82.037,174.517 85.966,176.256 88.600 C 183.478 99.533,185.897 103.219,186.370 104.008 C 186.644 104.466,186.946 104.935,187.041 105.049 C 187.136 105.164,188.279 106.868,189.582 108.836 C 190.884 110.803,192.134 112.677,192.358 113.000 C 192.582 113.323,193.433 114.610,194.248 115.860 L 195.731 118.134 195.731 150.764 C 195.731 180.858,195.705 183.417,195.387 183.681 C 194.943 184.050,172.342 184.229,171.161 183.873 C 170.527 183.682,170.129 183.201,168.097 180.166 C 166.813 178.248,165.310 176.023,164.757 175.221 C 164.204 174.420,162.451 171.843,160.860 169.495 C 159.270 167.147,157.581 164.664,157.106 163.977 C 155.158 161.159,152.917 157.865,149.528 152.837 C 147.559 149.917,145.048 146.216,143.947 144.612 C 142.845 143.009,140.803 140.010,139.408 137.949 C 136.298 133.353,132.773 128.153,131.683 126.551 C 130.468 124.767,130.175 124.851,128.395 127.493 C 126.651 130.083,122.337 136.424,120.007 139.823 C 119.065 141.197,116.465 145.039,114.230 148.360 C 111.994 151.681,109.678 155.102,109.083 155.960 C 106.096 160.268,104.473 162.652,102.065 166.268 C 100.615 168.444,99.382 170.271,99.324 170.328 C 99.266 170.385,98.747 171.135,98.169 171.994 C 96.988 173.752,93.805 178.406,91.676 181.491 C 90.898 182.618,90.028 183.658,89.743 183.802 C 89.023 184.167,57.340 184.192,56.543 183.829 C 55.724 183.456,55.841 182.595,56.918 181.078 C 57.415 180.376,58.245 179.193,58.760 178.449 C 59.276 177.704,60.093 176.533,60.577 175.846 C 61.532 174.489,63.035 172.320,63.824 171.161 C 64.097 170.760,64.661 169.964,65.076 169.391 C 65.492 168.818,67.273 166.242,69.035 163.665 C 70.796 161.088,72.686 158.361,73.235 157.605 C 73.783 156.849,74.373 156.020,74.545 155.764 C 74.716 155.507,75.238 154.767,75.705 154.119 C 76.171 153.471,77.442 151.629,78.529 150.026 C 79.616 148.423,80.834 146.642,81.235 146.070 C 86.157 139.043,88.121 136.241,89.044 134.930 C 89.649 134.071,90.874 132.290,91.766 130.973 C 92.657 129.656,93.462 128.485,93.554 128.371 C 93.818 128.040,95.567 125.543,96.929 123.550 C 99.844 119.284,101.598 116.755,102.967 114.841 C 103.769 113.721,104.850 112.184,105.369 111.426 C 106.262 110.122,107.744 107.974,109.578 105.327 C 110.803 103.559,110.874 102.953,110.006 101.701 C 109.615 101.137,108.857 100.021,108.320 99.219 C 107.454 97.925,104.258 93.357,101.983 90.161 C 101.535 89.531,100.750 88.407,100.239 87.663 C 99.729 86.918,98.884 85.700,98.361 84.956 C 97.838 84.211,96.406 82.150,95.177 80.375 C 91.987 75.765,91.033 74.397,90.022 72.983 C 88.979 71.524,87.968 70.080,86.398 67.806 C 85.777 66.906,84.893 65.632,84.435 64.975 C 83.977 64.318,83.126 63.087,82.544 62.239 C 81.962 61.391,80.931 59.914,80.253 58.957 C 79.576 57.999,78.881 56.995,78.709 56.726 C 78.389 56.224,76.245 53.139,74.667 50.911 C 74.181 50.224,72.975 48.490,71.988 47.059 C 71.001 45.627,70.113 44.362,70.015 44.248 C 69.826 44.028,67.373 40.469,66.840 39.642 C 66.668 39.375,66.054 38.475,65.475 37.642 C 64.896 36.809,63.912 35.377,63.289 34.461 C 62.665 33.545,62.104 32.749,62.042 32.691 C 61.890 32.551,60.141 30.052,58.782 28.031 C 58.004 26.874,57.678 26.187,57.678 25.703 C 57.678 24.276,56.602 24.362,74.483 24.362 L 90.633 24.362 91.306 25.076 " stroke="none" fill="#040404" fill-rule="evenodd"></path><path id="path3" d="M58.136 24.820 C 57.374 25.583,57.862 26.475,62.956 33.628 C 64.223 35.408,65.459 37.191,67.575 40.292 C 69.613 43.279,73.590 49.020,74.859 50.807 C 76.353 52.911,81.466 60.261,82.536 61.843 C 83.117 62.702,83.644 63.451,83.708 63.509 C 83.772 63.566,84.141 64.113,84.528 64.725 C 84.915 65.337,85.334 65.946,85.458 66.078 C 85.583 66.211,86.068 66.882,86.536 67.569 C 88.272 70.117,89.843 72.385,90.502 73.295 C 91.484 74.651,95.353 80.207,98.736 85.117 C 99.894 86.800,102.908 91.122,103.487 91.931 C 103.733 92.275,105.007 94.102,106.319 95.992 C 107.631 97.881,108.820 99.568,108.961 99.740 C 109.789 100.743,110.984 102.770,110.984 103.170 C 110.984 103.629,110.775 103.982,109.014 106.507 C 108.535 107.194,107.403 108.834,106.500 110.151 C 104.787 112.646,100.303 119.052,100.012 119.421 C 99.919 119.537,99.469 120.193,99.011 120.878 C 98.553 121.563,98.101 122.218,98.006 122.332 C 97.911 122.447,96.328 124.738,94.487 127.425 C 92.647 130.111,90.642 133.016,90.033 133.880 C 89.051 135.272,84.493 141.841,81.719 145.862 C 81.166 146.663,80.353 147.834,79.913 148.464 C 79.472 149.094,78.788 150.078,78.393 150.651 C 77.997 151.223,77.340 152.160,76.933 152.733 C 75.496 154.753,74.217 156.588,72.879 158.553 C 72.134 159.646,71.312 160.798,71.051 161.113 C 70.790 161.429,70.330 162.108,70.028 162.624 C 69.726 163.139,69.414 163.607,69.333 163.665 C 69.253 163.722,68.757 164.425,68.231 165.226 C 67.705 166.028,66.352 167.996,65.225 169.599 C 64.099 171.202,62.720 173.170,62.162 173.972 C 61.604 174.774,60.999 175.629,60.818 175.874 C 60.637 176.118,60.369 176.493,60.221 176.707 C 60.074 176.920,59.114 178.307,58.087 179.789 C 56.185 182.534,55.908 183.264,56.623 183.647 C 56.891 183.790,62.481 183.863,73.302 183.863 L 89.578 183.863 90.130 183.270 C 90.434 182.944,91.495 181.468,92.488 179.990 C 93.481 178.513,95.254 175.898,96.428 174.180 C 97.601 172.462,99.984 168.948,101.722 166.372 C 103.461 163.795,105.302 161.078,105.814 160.333 C 106.326 159.589,107.264 158.226,107.899 157.305 C 108.533 156.384,110.621 153.303,112.538 150.457 C 114.455 147.612,116.451 144.664,116.974 143.907 C 118.974 141.008,121.582 137.173,124.209 133.264 C 129.769 124.991,129.811 124.935,130.356 124.935 C 130.911 124.935,130.968 125.015,140.230 138.772 C 142.385 141.974,144.482 145.066,144.890 145.644 C 146.059 147.299,147.185 148.949,150.690 154.139 C 153.975 159.005,158.193 165.219,161.702 170.368 C 165.050 175.280,167.091 178.287,168.858 180.910 C 169.929 182.500,170.780 183.549,171.095 183.669 C 172.265 184.114,194.647 183.906,195.107 183.446 C 195.654 182.899,195.776 119.281,195.233 117.980 C 194.983 117.383,194.032 115.878,192.326 113.385 C 191.394 112.021,189.375 108.974,189.075 108.478 C 188.899 108.187,187.921 106.688,186.901 105.146 C 185.880 103.604,183.876 100.562,182.448 98.386 C 181.019 96.210,178.332 92.134,176.475 89.328 C 174.619 86.523,172.023 82.587,170.706 80.583 C 169.389 78.579,166.456 74.128,164.188 70.692 C 161.920 67.257,159.574 63.696,158.974 62.780 C 158.374 61.864,156.683 59.287,155.217 57.054 C 153.750 54.820,152.544 52.977,152.537 52.958 C 152.530 52.939,152.276 52.861,151.974 52.785 C 151.373 52.634,151.584 52.369,147.107 58.928 C 146.208 60.245,144.991 62.025,144.401 62.884 C 143.812 63.743,142.065 66.320,140.518 68.610 C 137.987 72.358,134.707 77.204,131.889 81.358 C 130.240 83.791,130.762 84.270,123.950 74.075 C 113.912 59.053,108.611 51.115,108.051 50.268 C 101.193 39.899,91.283 25.211,90.959 24.935 C 90.415 24.471,58.597 24.360,58.136 24.820 M90.360 25.606 C 90.568 25.718,90.934 26.116,91.174 26.491 C 91.413 26.866,91.729 27.355,91.874 27.578 C 92.534 28.583,93.617 30.278,93.813 30.612 C 94.031 30.983,95.131 32.620,95.420 33.004 C 95.506 33.118,96.451 34.524,97.520 36.127 C 101.029 41.391,102.534 43.622,102.647 43.727 C 102.709 43.784,102.853 43.981,102.967 44.165 C 103.742 45.405,104.409 46.340,104.560 46.399 C 104.657 46.438,104.737 46.587,104.737 46.732 C 104.737 46.876,104.925 47.164,105.154 47.371 C 105.383 47.578,105.570 47.851,105.570 47.976 C 105.571 48.101,105.946 48.719,106.405 49.349 C 106.863 49.979,107.380 50.799,107.552 51.171 C 107.725 51.543,107.959 51.848,108.072 51.848 C 108.184 51.848,108.277 51.952,108.277 52.078 C 108.277 52.205,108.511 52.587,108.798 52.927 C 109.084 53.267,109.318 53.665,109.318 53.810 C 109.318 53.955,109.505 54.244,109.735 54.451 C 109.964 54.658,110.151 54.915,110.151 55.023 C 110.151 55.130,110.345 55.467,110.583 55.771 C 110.821 56.076,111.574 57.168,112.258 58.199 C 113.971 60.783,116.829 64.985,118.065 66.736 C 118.630 67.538,119.160 68.334,119.241 68.506 C 119.322 68.678,119.547 69.053,119.740 69.339 C 120.520 70.496,122.554 73.570,122.749 73.887 C 122.863 74.073,123.355 74.801,123.842 75.504 C 124.328 76.208,124.727 76.848,124.727 76.926 C 124.727 77.105,126.026 78.789,126.236 78.883 C 126.322 78.921,126.393 79.066,126.393 79.205 C 126.393 79.345,126.814 80.038,127.330 80.746 C 127.845 81.455,128.267 82.110,128.267 82.204 C 128.267 82.580,129.975 84.123,130.392 84.123 C 130.904 84.123,131.598 83.565,131.598 83.154 C 131.598 83.000,131.680 82.874,131.780 82.874 C 131.880 82.874,132.278 82.349,132.665 81.709 C 133.052 81.068,133.579 80.282,133.837 79.961 C 134.094 79.640,134.305 79.274,134.305 79.147 C 134.305 79.021,134.385 78.917,134.482 78.917 C 134.580 78.917,134.946 78.472,135.296 77.928 C 135.646 77.384,136.461 76.189,137.109 75.273 C 138.190 73.742,141.627 68.696,142.113 67.924 C 142.228 67.742,143.376 66.013,144.664 64.082 C 145.953 62.150,147.007 60.490,147.007 60.391 C 147.007 60.292,147.088 60.180,147.188 60.142 C 147.287 60.104,148.002 59.136,148.777 57.991 C 151.866 53.423,151.775 53.475,153.081 55.514 C 154.288 57.401,154.813 58.198,154.919 58.303 C 155.152 58.535,156.377 60.407,156.377 60.531 C 156.377 60.605,156.533 60.837,156.723 61.047 C 156.913 61.257,157.171 61.605,157.295 61.819 C 157.420 62.033,157.991 62.889,158.563 63.720 C 160.722 66.855,161.876 68.624,162.739 70.120 C 162.954 70.492,163.197 70.796,163.279 70.796 C 163.361 70.796,163.491 70.993,163.567 71.232 C 163.643 71.472,164.001 72.091,164.362 72.607 C 164.723 73.124,165.112 73.700,165.226 73.889 C 165.340 74.078,165.645 74.530,165.903 74.895 C 166.161 75.260,166.372 75.627,166.372 75.712 C 166.372 75.796,166.527 76.037,166.718 76.247 C 166.908 76.458,167.166 76.804,167.290 77.018 C 167.864 77.999,170.106 81.350,170.407 81.676 C 170.593 81.877,170.744 82.100,170.744 82.174 C 170.744 82.247,171.283 83.097,171.942 84.064 C 172.600 85.030,173.280 86.070,173.451 86.374 C 173.623 86.678,173.868 87.022,173.995 87.139 C 174.122 87.255,174.580 87.936,175.014 88.652 C 175.447 89.368,175.881 89.953,175.980 89.953 C 176.078 89.953,176.160 90.070,176.162 90.213 C 176.166 90.499,177.208 92.154,177.714 92.678 C 177.889 92.859,178.032 93.086,178.032 93.183 C 178.032 93.344,178.542 94.148,180.773 97.508 C 181.212 98.170,181.572 98.764,181.572 98.827 C 181.572 98.932,182.675 100.565,183.098 101.088 C 183.193 101.205,183.802 102.106,184.452 103.090 C 185.101 104.074,186.101 105.562,186.674 106.395 C 187.246 107.229,187.810 108.064,187.926 108.250 C 188.487 109.150,189.391 110.474,189.507 110.567 C 189.578 110.625,189.935 111.203,190.300 111.852 C 190.664 112.501,191.099 113.145,191.265 113.283 C 191.431 113.421,191.567 113.616,191.567 113.718 C 191.567 113.819,192.199 114.862,192.972 116.035 L 194.378 118.168 194.428 150.338 C 194.459 170.470,194.404 182.626,194.279 182.821 C 194.107 183.093,192.630 183.134,183.069 183.134 C 170.929 183.134,171.422 183.186,170.526 181.795 C 169.443 180.113,167.527 177.299,167.398 177.199 C 167.324 177.142,167.104 176.814,166.911 176.471 C 166.717 176.127,166.093 175.190,165.524 174.388 C 164.532 172.992,162.866 170.583,162.207 169.592 C 161.630 168.725,159.809 166.072,158.817 164.655 C 158.277 163.882,157.834 163.208,157.834 163.155 C 157.834 163.103,157.061 161.923,156.117 160.532 C 155.172 159.142,154.258 157.792,154.086 157.532 C 153.366 156.442,151.753 154.111,150.982 153.045 C 149.591 151.124,146.799 146.992,146.799 146.857 C 146.799 146.787,146.654 146.581,146.476 146.400 C 146.299 146.218,145.458 144.992,144.607 143.675 C 142.919 141.062,142.801 140.884,141.957 139.696 C 141.642 139.253,141.385 138.800,141.385 138.690 C 141.385 138.580,141.260 138.415,141.108 138.324 C 140.956 138.232,140.655 137.853,140.439 137.480 C 140.222 137.108,139.972 136.804,139.882 136.804 C 139.792 136.804,139.719 136.663,139.719 136.491 C 139.719 136.320,139.531 135.992,139.302 135.763 C 139.073 135.534,138.886 135.259,138.886 135.153 C 138.886 135.046,138.769 134.835,138.626 134.683 C 138.483 134.531,137.992 133.845,137.535 133.158 C 137.079 132.472,136.657 131.864,136.598 131.806 C 136.540 131.749,136.117 131.140,135.659 130.453 C 135.200 129.766,134.750 129.110,134.657 128.995 C 134.564 128.881,134.308 128.506,134.087 128.162 C 133.660 127.497,132.594 125.962,131.658 124.665 C 130.459 123.004,129.759 123.427,127.071 127.434 C 126.649 128.064,126.248 128.626,126.181 128.683 C 125.997 128.841,123.061 133.289,123.061 133.410 C 123.061 133.469,122.780 133.871,122.436 134.305 C 122.093 134.739,121.812 135.155,121.812 135.229 C 121.812 135.303,121.712 135.477,121.591 135.615 C 121.470 135.754,121.189 136.148,120.966 136.491 C 119.862 138.199,117.750 141.307,116.398 143.215 C 116.111 143.619,115.737 144.158,115.565 144.414 C 115.393 144.670,114.948 145.316,114.576 145.850 C 114.204 146.383,113.899 146.897,113.899 146.992 C 113.899 147.086,113.746 147.291,113.558 147.447 C 113.371 147.602,112.975 148.106,112.678 148.565 C 112.381 149.025,112.042 149.549,111.925 149.730 C 111.294 150.708,110.761 151.519,110.567 151.796 C 110.447 151.968,109.793 152.905,109.113 153.878 C 108.434 154.852,107.488 156.281,107.012 157.054 C 106.536 157.827,106.064 158.459,105.963 158.459 C 105.861 158.459,105.778 158.570,105.778 158.705 C 105.778 158.911,103.612 162.302,103.275 162.624 C 103.214 162.681,102.693 163.431,102.116 164.289 C 101.538 165.148,100.609 166.507,100.052 167.309 C 99.494 168.110,98.844 169.047,98.608 169.391 C 98.371 169.735,98.129 170.062,98.069 170.120 C 97.953 170.230,93.534 176.783,93.178 177.372 C 93.063 177.563,92.597 178.282,92.144 178.969 C 91.690 179.656,91.223 180.370,91.105 180.555 C 90.422 181.628,90.030 182.149,89.556 182.613 L 89.026 183.134 74.133 183.197 C 55.724 183.275,56.648 183.381,58.059 181.361 C 58.479 180.758,58.917 180.115,59.032 179.932 C 59.146 179.748,59.638 179.057,60.125 178.396 C 60.612 177.735,61.010 177.154,61.010 177.103 C 61.010 176.923,62.254 175.172,62.566 174.914 C 62.741 174.768,62.884 174.531,62.884 174.385 C 62.884 174.240,63.024 174.067,63.196 174.001 C 63.368 173.935,63.509 173.751,63.509 173.592 C 63.509 173.434,63.719 173.065,63.977 172.774 C 64.235 172.483,64.867 171.621,65.383 170.859 C 65.898 170.098,66.530 169.222,66.788 168.912 C 67.045 168.603,67.256 168.291,67.256 168.219 C 67.257 168.147,67.678 167.545,68.194 166.881 C 68.709 166.217,69.131 165.550,69.131 165.398 C 69.131 165.247,69.227 165.122,69.345 165.122 C 69.464 165.122,69.620 164.958,69.693 164.758 C 69.766 164.558,70.091 164.086,70.415 163.710 C 70.739 163.333,71.005 162.888,71.005 162.721 C 71.005 162.553,71.079 162.415,71.169 162.415 C 71.367 162.415,72.879 160.205,72.879 159.914 C 72.879 159.801,72.955 159.708,73.048 159.708 C 73.141 159.708,73.794 158.842,74.499 157.782 C 75.203 156.723,76.243 155.200,76.808 154.399 C 77.374 153.597,78.130 152.456,78.488 151.863 C 78.846 151.269,79.423 150.480,79.771 150.108 C 80.118 149.737,80.549 149.144,80.730 148.792 C 80.910 148.440,81.133 148.103,81.224 148.043 C 81.391 147.935,81.558 147.699,83.622 144.663 C 84.226 143.774,84.890 142.825,85.098 142.552 C 85.306 142.280,85.594 141.883,85.737 141.669 C 86.701 140.233,87.799 138.572,87.975 138.282 C 88.090 138.094,88.394 137.647,88.652 137.288 C 88.909 136.929,89.120 136.580,89.120 136.511 C 89.120 136.443,89.284 136.212,89.485 135.997 C 89.685 135.782,90.271 134.974,90.786 134.201 C 91.301 133.428,91.887 132.620,92.087 132.405 C 92.288 132.190,92.452 131.925,92.452 131.814 C 92.452 131.704,92.619 131.447,92.824 131.242 C 93.383 130.682,94.326 129.362,94.326 129.139 C 94.326 129.031,94.454 128.835,94.612 128.705 C 94.769 128.575,95.632 127.368,96.529 126.025 C 97.427 124.681,98.353 123.337,98.586 123.038 C 99.010 122.496,99.222 122.194,99.901 121.163 C 100.667 120.002,101.930 118.163,102.030 118.064 C 102.293 117.801,103.432 116.047,103.551 115.721 C 103.623 115.521,103.773 115.357,103.884 115.357 C 103.994 115.357,104.145 115.166,104.219 114.933 C 104.293 114.701,104.580 114.265,104.857 113.966 C 105.135 113.667,105.362 113.309,105.362 113.172 C 105.362 113.035,105.549 112.753,105.778 112.546 C 106.007 112.338,106.195 112.043,106.195 111.889 C 106.195 111.735,106.269 111.609,106.359 111.609 C 106.514 111.609,108.069 109.429,108.069 109.211 C 108.069 109.156,108.215 108.946,108.395 108.745 C 108.899 108.181,110.776 105.566,110.776 105.427 C 110.776 105.359,110.926 105.193,111.110 105.059 C 112.023 104.392,111.914 101.197,110.979 101.197 C 110.867 101.197,110.769 101.080,110.762 100.937 C 110.754 100.794,110.430 100.255,110.041 99.740 C 109.653 99.224,108.944 98.240,108.466 97.553 C 107.987 96.866,107.281 95.913,106.895 95.436 C 106.510 94.959,106.195 94.515,106.195 94.449 C 106.195 94.384,105.796 93.790,105.310 93.129 C 104.823 92.468,104.331 91.779,104.217 91.596 C 104.102 91.414,103.727 90.863,103.384 90.371 C 103.040 89.879,102.663 89.327,102.547 89.143 C 102.186 88.575,100.991 86.812,99.480 84.620 C 97.945 82.394,97.854 82.264,96.412 80.245 C 95.665 79.200,94.937 78.170,94.792 77.955 C 94.137 76.978,92.446 74.596,92.053 74.095 C 91.814 73.791,91.619 73.439,91.619 73.314 C 91.619 73.189,91.543 73.087,91.449 73.087 C 91.356 73.087,91.069 72.712,90.811 72.254 C 90.554 71.796,90.277 71.421,90.197 71.421 C 90.117 71.421,89.959 71.253,89.846 71.047 C 89.296 70.046,88.739 69.198,88.027 68.278 C 87.598 67.723,87.246 67.196,87.246 67.107 C 87.246 67.017,86.824 66.407,86.309 65.751 C 85.794 65.095,85.372 64.502,85.372 64.435 C 85.372 64.306,84.133 62.439,83.928 62.259 C 83.863 62.202,83.435 61.604,82.977 60.930 C 80.904 57.878,79.487 55.920,79.292 55.839 C 79.201 55.801,79.125 55.660,79.125 55.527 C 79.125 55.393,78.704 54.747,78.188 54.090 C 77.673 53.434,77.251 52.813,77.251 52.710 C 77.251 52.608,77.108 52.405,76.934 52.260 C 76.622 52.001,75.377 50.250,75.377 50.070 C 75.377 50.020,74.956 49.424,74.440 48.747 C 73.925 48.069,73.497 47.435,73.490 47.339 C 73.482 47.242,73.156 46.741,72.765 46.226 C 72.374 45.711,71.900 45.012,71.711 44.674 C 71.522 44.336,71.262 43.946,71.134 43.807 C 71.006 43.667,70.479 42.929,69.964 42.167 C 69.448 41.404,68.464 40.013,67.777 39.076 C 67.090 38.138,66.178 36.857,65.750 36.229 C 65.322 35.600,64.519 34.430,63.964 33.628 C 58.518 25.754,58.568 25.835,58.961 25.587 C 59.360 25.334,89.885 25.353,90.360 25.606 " stroke="none" fill="#1f6caa" fill-rule="evenodd"></path><path id="path4" d="M170.588 24.387 C 169.766 24.624,169.642 25.630,170.328 26.501 C 170.557 26.793,170.744 27.084,170.744 27.150 C 170.744 27.216,171.087 27.810,171.505 28.471 C 172.887 30.654,173.581 31.740,174.403 33.004 C 174.850 33.691,175.357 34.510,175.531 34.824 C 175.783 35.280,177.118 37.479,178.662 39.979 C 178.768 40.151,179.731 41.744,180.803 43.519 C 181.875 45.294,183.281 47.590,183.928 48.621 C 184.575 49.651,185.440 51.057,185.850 51.744 C 186.260 52.431,186.870 53.415,187.204 53.930 C 187.538 54.446,187.878 55.008,187.958 55.180 C 188.038 55.351,188.261 55.726,188.454 56.012 C 189.165 57.066,190.665 59.457,190.805 59.761 C 190.884 59.932,191.205 60.471,191.518 60.959 C 191.831 61.446,192.676 62.804,193.396 63.978 C 194.881 66.398,194.750 66.181,196.061 68.402 C 197.163 70.270,197.599 70.973,198.771 72.774 C 199.218 73.460,199.699 74.257,199.841 74.544 C 199.982 74.830,200.568 75.768,201.143 76.627 C 201.717 77.486,202.248 78.329,202.322 78.501 C 202.396 78.673,202.658 79.094,202.906 79.438 C 203.337 80.037,204.501 81.899,204.988 82.769 C 205.116 82.998,205.546 83.731,205.942 84.396 C 206.339 85.062,206.757 85.770,206.871 85.969 C 209.901 91.231,210.489 91.395,212.861 87.635 C 213.575 86.503,214.415 85.179,214.729 84.694 C 215.042 84.208,215.360 83.670,215.436 83.498 C 215.512 83.326,215.779 82.905,216.029 82.561 C 216.280 82.218,216.755 81.468,217.086 80.895 C 217.417 80.323,217.854 79.673,218.058 79.451 C 218.261 79.229,218.428 78.939,218.428 78.806 C 218.428 78.674,218.615 78.396,218.844 78.188 C 219.073 77.981,219.261 77.741,219.261 77.655 C 219.261 77.568,220.128 76.199,221.187 74.612 C 222.848 72.123,223.936 70.436,226.784 65.936 C 228.465 63.280,230.174 60.627,230.523 60.133 C 230.742 59.823,230.921 59.478,230.921 59.367 C 230.921 59.256,231.042 59.042,231.189 58.890 C 231.560 58.509,232.795 56.649,232.796 56.471 C 232.796 56.390,233.030 56.053,233.316 55.720 C 233.602 55.387,233.840 55.012,233.843 54.887 C 233.853 54.562,234.504 53.825,235.029 53.544 C 235.720 53.174,268.060 53.206,268.368 53.577 C 268.537 53.781,268.380 54.155,267.731 55.087 C 267.257 55.768,265.262 58.714,263.299 61.635 C 261.335 64.555,259.199 67.694,258.551 68.610 C 257.421 70.207,255.734 72.646,255.075 73.633 C 254.904 73.891,254.014 75.204,253.097 76.553 C 252.181 77.901,251.338 79.168,251.223 79.369 C 251.109 79.569,250.359 80.687,249.558 81.851 C 248.756 83.016,247.488 84.870,246.741 85.972 C 245.993 87.074,244.955 88.584,244.435 89.328 C 243.914 90.073,242.753 91.760,241.855 93.077 C 239.754 96.156,239.378 96.698,239.248 96.825 C 239.145 96.926,238.118 98.457,237.692 99.144 C 237.377 99.651,234.915 103.350,234.727 103.597 C 234.182 104.315,233.212 105.760,233.212 105.855 C 233.212 105.992,232.378 107.234,232.000 107.659 C 231.761 107.929,231.256 108.679,230.609 109.725 C 230.495 109.911,230.284 110.199,230.140 110.367 C 229.493 111.123,225.782 116.507,225.299 117.389 C 224.746 118.400,224.836 183.577,225.391 183.983 C 226.122 184.518,336.900 184.417,337.562 183.881 L 338.053 183.483 338.114 170.190 C 338.176 156.580,338.156 155.906,337.651 155.216 C 337.364 154.824,336.523 154.813,297.171 154.711 C 275.068 154.654,256.928 154.551,256.860 154.483 C 256.672 154.295,257.253 153.037,258.160 151.668 C 258.607 150.994,259.039 150.232,259.121 149.974 C 259.202 149.716,259.351 149.505,259.452 149.505 C 259.554 149.505,259.790 149.182,259.978 148.786 C 260.166 148.391,260.451 147.958,260.613 147.824 C 260.774 147.690,260.906 147.502,260.906 147.407 C 260.906 147.312,261.142 146.878,261.430 146.443 C 261.719 146.009,262.043 145.513,262.151 145.341 C 262.259 145.169,262.803 144.326,263.359 143.467 C 265.268 140.520,265.841 139.612,266.837 137.949 C 267.387 137.033,268.090 135.908,268.400 135.450 C 268.710 134.992,269.370 133.961,269.865 133.160 C 271.030 131.274,272.067 129.637,272.808 128.516 C 273.133 128.024,273.399 127.549,273.399 127.460 C 273.399 127.372,273.678 126.932,274.018 126.482 C 274.359 126.032,274.640 125.592,274.643 125.505 C 274.646 125.418,274.981 124.874,275.387 124.297 C 275.793 123.719,276.215 123.041,276.325 122.789 C 276.434 122.538,276.846 121.910,277.238 121.395 C 277.631 120.880,277.959 120.352,277.966 120.223 C 277.974 120.094,278.128 119.866,278.308 119.717 C 278.488 119.567,278.839 119.074,279.089 118.622 C 279.629 117.640,279.825 117.317,280.375 116.497 C 280.604 116.155,280.902 115.688,281.038 115.460 C 281.174 115.231,281.906 114.060,282.665 112.858 C 283.424 111.655,284.156 110.487,284.292 110.260 C 284.428 110.034,284.891 109.302,285.320 108.632 C 285.750 107.962,286.101 107.360,286.101 107.293 C 286.101 107.226,286.335 106.864,286.622 106.489 C 286.908 106.113,287.142 105.749,287.142 105.680 C 287.142 105.610,287.315 105.299,287.526 104.989 C 287.737 104.679,288.145 104.050,288.433 103.592 C 288.721 103.134,289.579 101.803,290.340 100.635 C 291.101 99.467,291.723 98.459,291.723 98.396 C 291.723 98.332,292.145 97.677,292.660 96.940 C 293.175 96.202,293.597 95.538,293.597 95.464 C 293.597 95.390,293.956 94.799,294.394 94.151 C 295.530 92.472,296.807 90.511,296.929 90.257 C 296.986 90.139,297.548 89.219,298.178 88.215 C 298.808 87.210,299.687 85.808,300.131 85.099 C 301.436 83.017,303.047 80.387,303.385 79.787 C 303.558 79.480,304.438 78.105,305.342 76.731 C 306.246 75.357,307.191 73.904,307.443 73.503 C 307.695 73.103,308.230 72.259,308.632 71.629 C 311.095 67.770,310.883 68.106,311.466 67.129 C 312.422 65.526,313.690 63.489,315.082 61.323 C 315.618 60.488,316.349 59.288,316.706 58.655 C 317.063 58.022,317.491 57.391,317.657 57.253 C 317.823 57.115,317.959 56.925,317.959 56.830 C 317.959 56.736,318.226 56.255,318.551 55.763 C 318.876 55.270,319.498 54.305,319.931 53.618 C 320.365 52.931,321.130 51.751,321.630 50.995 C 322.131 50.240,322.540 49.564,322.540 49.492 C 322.540 49.421,322.906 48.821,323.352 48.159 C 324.648 46.237,326.816 42.849,327.532 41.625 C 327.894 41.006,328.464 40.078,328.798 39.563 C 329.132 39.047,329.522 38.391,329.664 38.105 C 329.807 37.819,329.977 37.538,330.042 37.480 C 330.107 37.423,330.436 36.908,330.773 36.335 C 331.585 34.953,331.649 34.853,332.795 33.133 C 333.746 31.708,334.926 29.891,336.193 27.902 C 337.842 25.314,337.939 24.703,336.752 24.373 C 335.729 24.089,171.572 24.103,170.588 24.387 M58.006 24.690 C 57.382 25.313,57.607 26.284,58.782 28.031 C 60.141 30.052,61.890 32.551,62.042 32.691 C 62.104 32.749,62.665 33.545,63.289 34.461 C 63.912 35.377,64.896 36.809,65.475 37.642 C 66.054 38.475,66.668 39.375,66.840 39.642 C 67.373 40.469,69.826 44.028,70.015 44.248 C 70.113 44.362,71.001 45.627,71.988 47.059 C 72.975 48.490,74.181 50.224,74.667 50.911 C 76.245 53.139,78.389 56.224,78.709 56.726 C 78.881 56.995,79.576 57.999,80.253 58.957 C 80.931 59.914,81.962 61.391,82.544 62.239 C 83.126 63.087,83.977 64.318,84.435 64.975 C 84.893 65.632,85.777 66.906,86.398 67.806 C 87.968 70.080,88.979 71.524,90.022 72.983 C 91.033 74.397,91.987 75.765,95.177 80.375 C 96.406 82.150,97.838 84.211,98.361 84.956 C 98.884 85.700,99.729 86.918,100.239 87.663 C 100.750 88.407,101.535 89.531,101.983 90.161 C 104.258 93.357,107.454 97.925,108.320 99.219 C 108.857 100.021,109.615 101.137,110.006 101.701 C 110.874 102.953,110.803 103.559,109.578 105.327 C 107.744 107.974,106.262 110.122,105.369 111.426 C 104.850 112.184,103.769 113.721,102.967 114.841 C 101.598 116.755,99.844 119.284,96.929 123.550 C 95.567 125.543,93.818 128.040,93.554 128.371 C 93.462 128.485,92.657 129.656,91.766 130.973 C 90.874 132.290,89.649 134.071,89.044 134.930 C 88.121 136.241,86.157 139.043,81.235 146.070 C 80.834 146.642,79.616 148.423,78.529 150.026 C 77.442 151.629,76.171 153.471,75.705 154.119 C 75.238 154.767,74.716 155.507,74.545 155.764 C 74.373 156.020,73.783 156.849,73.235 157.605 C 72.686 158.361,70.796 161.088,69.035 163.665 C 67.273 166.242,65.492 168.818,65.076 169.391 C 64.661 169.964,64.097 170.760,63.824 171.161 C 63.035 172.320,61.532 174.489,60.577 175.846 C 60.093 176.533,59.276 177.704,58.760 178.449 C 58.245 179.193,57.415 180.376,56.918 181.078 C 55.818 182.628,55.715 183.481,56.585 183.840 C 56.999 184.010,61.635 184.060,73.295 184.020 L 89.433 183.964 73.229 183.913 C 62.555 183.880,56.889 183.789,56.623 183.647 C 55.908 183.264,56.185 182.534,58.087 179.789 C 59.114 178.307,60.074 176.920,60.221 176.707 C 60.369 176.493,60.637 176.118,60.818 175.874 C 60.999 175.629,61.604 174.774,62.162 173.972 C 62.720 173.170,64.099 171.202,65.225 169.599 C 66.352 167.996,67.705 166.028,68.231 165.226 C 68.757 164.425,69.253 163.722,69.333 163.665 C 69.414 163.607,69.726 163.139,70.028 162.624 C 70.330 162.108,70.790 161.429,71.051 161.113 C 71.312 160.798,72.134 159.646,72.879 158.553 C 74.217 156.588,75.496 154.753,76.933 152.733 C 77.340 152.160,77.997 151.223,78.393 150.651 C 78.788 150.078,79.472 149.094,79.913 148.464 C 80.353 147.834,81.166 146.663,81.719 145.862 C 84.493 141.841,89.051 135.272,90.033 133.880 C 90.642 133.016,92.647 130.111,94.487 127.425 C 96.328 124.738,97.911 122.447,98.006 122.332 C 98.101 122.218,98.553 121.563,99.011 120.878 C 99.469 120.193,99.919 119.537,100.012 119.421 C 100.303 119.052,104.787 112.646,106.500 110.151 C 107.403 108.834,108.535 107.194,109.014 106.507 C 110.775 103.982,110.984 103.629,110.984 103.170 C 110.984 102.770,109.789 100.743,108.961 99.740 C 108.820 99.568,107.631 97.881,106.319 95.992 C 105.007 94.102,103.733 92.275,103.487 91.931 C 102.908 91.122,99.894 86.800,98.736 85.117 C 95.353 80.207,91.484 74.651,90.502 73.295 C 89.843 72.385,88.272 70.117,86.536 67.569 C 86.068 66.882,85.583 66.211,85.458 66.078 C 85.334 65.946,84.915 65.337,84.528 64.725 C 84.141 64.113,83.772 63.566,83.708 63.509 C 83.644 63.451,83.117 62.702,82.536 61.843 C 81.466 60.261,76.353 52.911,74.859 50.807 C 73.590 49.020,69.613 43.279,67.575 40.292 C 65.459 37.191,64.223 35.408,62.956 33.628 C 57.862 26.475,57.374 25.583,58.136 24.820 C 58.597 24.360,90.415 24.471,90.959 24.935 C 91.283 25.211,101.193 39.899,108.051 50.268 C 108.611 51.115,113.912 59.053,123.950 74.075 C 130.762 84.270,130.240 83.791,131.889 81.358 C 134.707 77.204,137.987 72.358,140.518 68.610 C 142.065 66.320,143.812 63.743,144.401 62.884 C 144.991 62.025,146.208 60.245,147.107 58.928 C 151.584 52.369,151.373 52.634,151.974 52.785 C 152.276 52.861,152.530 52.939,152.537 52.958 C 152.544 52.977,153.750 54.820,155.217 57.054 C 156.683 59.287,158.374 61.864,158.974 62.780 C 159.574 63.696,161.920 67.257,164.188 70.692 C 166.456 74.128,169.389 78.579,170.706 80.583 C 172.023 82.587,174.619 86.523,176.475 89.328 C 178.332 92.134,181.019 96.210,182.448 98.386 C 183.876 100.562,185.880 103.604,186.901 105.146 C 187.921 106.688,188.899 108.187,189.075 108.478 C 189.375 108.974,191.394 112.021,192.326 113.385 C 194.032 115.878,194.983 117.383,195.233 117.980 C 195.776 119.281,195.654 182.899,195.107 183.446 C 194.647 183.906,172.265 184.114,171.095 183.669 C 170.780 183.549,169.929 182.500,168.858 180.910 C 167.091 178.287,165.050 175.280,161.702 170.368 C 158.193 165.219,153.975 159.005,150.690 154.139 C 147.185 148.949,146.059 147.299,144.890 145.644 C 144.482 145.066,142.385 141.974,140.230 138.772 C 130.968 125.015,130.911 124.935,130.356 124.935 C 129.811 124.935,129.769 124.991,124.209 133.264 C 121.582 137.173,118.974 141.008,116.974 143.907 C 116.451 144.664,114.455 147.612,112.538 150.457 C 110.621 153.303,108.533 156.384,107.899 157.305 C 107.264 158.226,106.326 159.589,105.814 160.333 C 105.302 161.078,103.461 163.795,101.722 166.372 C 99.984 168.948,97.601 172.462,96.428 174.180 C 95.254 175.898,93.481 178.513,92.488 179.990 C 91.495 181.468,90.434 182.944,90.130 183.270 C 89.826 183.596,89.646 183.863,89.729 183.863 C 89.994 183.863,90.671 182.996,92.495 180.323 C 93.473 178.891,94.947 176.736,95.771 175.534 C 96.596 174.331,97.708 172.691,98.243 171.890 C 98.778 171.088,99.264 170.385,99.322 170.328 C 99.381 170.271,100.615 168.444,102.065 166.268 C 104.473 162.652,106.096 160.268,109.083 155.960 C 109.678 155.102,111.994 151.681,114.230 148.360 C 116.465 145.039,119.065 141.197,120.007 139.823 C 122.337 136.424,126.651 130.083,128.395 127.493 C 130.175 124.851,130.468 124.767,131.683 126.551 C 132.773 128.153,136.298 133.353,139.408 137.949 C 140.803 140.010,142.845 143.009,143.947 144.612 C 145.048 146.216,147.559 149.917,149.528 152.837 C 152.917 157.865,155.158 161.159,157.106 163.977 C 157.581 164.664,159.270 167.147,160.860 169.495 C 162.451 171.843,164.204 174.420,164.757 175.221 C 165.310 176.023,166.813 178.248,168.097 180.166 C 170.129 183.201,170.527 183.682,171.161 183.873 C 172.342 184.229,194.943 184.050,195.387 183.681 C 195.705 183.417,195.731 180.858,195.731 150.764 L 195.731 118.134 194.248 115.860 C 193.433 114.610,192.582 113.323,192.358 113.000 C 192.134 112.677,190.884 110.803,189.582 108.836 C 188.279 106.868,187.136 105.164,187.041 105.049 C 186.946 104.935,186.644 104.466,186.370 104.008 C 185.897 103.219,183.478 99.533,176.256 88.600 C 174.517 85.966,171.932 82.037,170.513 79.870 C 168.365 76.589,159.580 63.306,158.866 62.259 C 158.749 62.087,158.117 61.104,157.461 60.073 C 151.554 50.788,152.118 51.090,149.103 55.596 C 148.222 56.913,147.045 58.647,146.488 59.448 C 145.398 61.016,141.661 66.517,138.709 70.901 C 130.288 83.403,130.973 82.458,130.326 82.453 C 129.918 82.450,129.477 81.918,127.871 79.486 C 126.795 77.856,125.751 76.282,125.551 75.988 C 122.652 71.729,115.969 61.779,115.044 60.346 C 114.930 60.169,114.375 59.332,113.811 58.486 C 113.247 57.641,112.351 56.294,111.821 55.492 C 110.382 53.317,103.549 43.186,102.550 41.746 C 102.072 41.058,101.643 40.402,101.595 40.289 C 101.337 39.670,91.872 25.676,91.306 25.076 L 90.633 24.362 74.483 24.362 C 60.079 24.362,58.297 24.398,58.006 24.690 M336.245 25.465 C 336.285 25.671,335.920 26.467,335.434 27.235 C 334.948 28.003,333.943 29.615,333.199 30.817 C 332.456 32.020,331.511 33.517,331.098 34.144 C 330.686 34.772,330.302 35.381,330.244 35.498 C 330.086 35.818,328.617 38.092,327.933 39.076 C 327.601 39.553,327.330 39.997,327.330 40.063 C 327.330 40.129,326.955 40.723,326.497 41.383 C 326.039 42.042,325.664 42.648,325.664 42.728 C 325.664 42.809,325.242 43.478,324.727 44.215 C 324.211 44.952,323.790 45.619,323.790 45.696 C 323.790 45.774,323.579 46.136,323.321 46.500 C 322.765 47.285,322.458 47.775,321.994 48.621 C 321.663 49.224,321.253 49.876,319.246 52.993 C 318.730 53.795,318.102 54.779,317.851 55.180 C 317.599 55.580,316.975 56.564,316.464 57.366 C 313.956 61.297,313.016 62.778,312.457 63.675 C 312.122 64.214,311.455 65.263,310.974 66.007 C 310.493 66.752,309.727 67.970,309.272 68.714 C 308.371 70.187,305.887 74.157,304.475 76.377 C 303.988 77.144,303.393 78.137,303.155 78.582 C 302.916 79.028,302.629 79.496,302.517 79.623 C 302.294 79.875,300.057 83.351,298.074 86.526 C 296.194 89.536,295.672 90.359,294.805 91.686 C 294.370 92.352,294.014 92.933,294.014 92.977 C 294.014 93.020,293.458 93.927,292.779 94.992 C 292.099 96.057,291.057 97.725,290.463 98.699 C 289.868 99.672,288.888 101.218,288.285 102.134 C 286.701 104.539,284.333 108.295,284.018 108.902 C 283.870 109.188,283.686 109.469,283.610 109.526 C 283.535 109.584,283.109 110.239,282.665 110.984 C 282.221 111.728,281.801 112.384,281.731 112.441 C 281.661 112.499,281.335 113.014,281.007 113.587 C 280.678 114.159,280.020 115.237,279.544 115.981 C 279.068 116.726,278.302 117.944,277.841 118.688 C 277.075 119.926,274.923 123.353,274.442 124.102 C 274.331 124.274,273.785 125.122,273.227 125.987 C 272.669 126.852,272.175 127.648,272.129 127.757 C 272.083 127.865,271.708 128.470,271.294 129.099 C 270.284 130.639,269.023 132.627,267.037 135.813 C 266.127 137.272,264.804 139.380,264.096 140.498 C 263.388 141.615,262.358 143.266,261.805 144.165 C 261.253 145.064,260.661 146.020,260.489 146.290 C 260.318 146.560,259.662 147.592,259.032 148.582 C 256.600 152.405,256.251 152.962,255.877 153.624 C 255.320 154.611,255.374 155.301,256.026 155.549 C 256.366 155.679,271.057 155.752,296.511 155.752 C 332.552 155.752,336.494 155.784,336.789 156.079 C 337.259 156.550,337.289 182.505,336.821 183.146 C 336.345 183.797,226.781 183.887,226.131 183.237 C 225.714 182.820,225.712 182.656,225.766 150.594 L 225.820 118.371 226.669 117.124 C 227.136 116.438,228.964 113.722,230.729 111.088 C 232.495 108.454,233.987 106.252,234.045 106.195 C 234.102 106.137,234.342 105.809,234.579 105.466 C 234.815 105.122,235.451 104.205,235.991 103.427 C 236.531 102.650,238.689 99.464,240.787 96.348 C 242.885 93.232,245.313 89.651,246.184 88.391 C 249.316 83.858,252.681 78.923,256.886 72.697 C 262.064 65.030,263.830 62.452,264.036 62.259 C 264.098 62.202,264.707 61.312,265.390 60.281 C 266.073 59.250,266.683 58.360,266.746 58.303 C 266.809 58.246,267.314 57.496,267.869 56.637 C 268.423 55.778,269.098 54.742,269.368 54.336 C 269.965 53.437,269.990 52.973,269.457 52.688 C 268.655 52.259,234.856 52.417,234.336 52.852 C 233.953 53.173,233.131 54.384,228.944 60.802 C 228.458 61.546,227.735 62.670,227.338 63.300 C 226.941 63.930,225.977 65.429,225.195 66.632 C 224.414 67.834,223.474 69.287,223.106 69.859 C 222.739 70.432,222.075 71.463,221.631 72.150 C 221.187 72.837,220.777 73.493,220.719 73.607 C 220.619 73.805,220.405 74.143,218.673 76.835 C 218.268 77.465,217.133 79.194,216.152 80.678 C 215.170 82.161,214.274 83.534,214.159 83.729 C 213.155 85.436,211.206 88.348,210.836 88.696 L 210.376 89.128 209.873 88.636 C 209.596 88.365,208.912 87.403,208.353 86.498 C 206.055 82.781,205.460 81.832,203.728 79.125 C 203.398 78.610,203.010 77.954,202.865 77.668 C 202.720 77.382,202.344 76.750,202.029 76.265 C 201.464 75.392,198.119 69.889,197.702 69.146 C 197.583 68.934,197.244 68.399,196.949 67.957 C 196.653 67.514,195.707 65.981,194.847 64.550 C 193.987 63.118,192.378 60.495,191.272 58.719 C 188.644 54.503,187.966 53.400,184.940 48.412 C 184.176 47.152,182.811 44.903,181.907 43.414 C 180.331 40.818,178.821 38.426,178.002 37.229 C 177.789 36.918,177.616 36.609,177.616 36.540 C 177.616 36.472,177.241 35.865,176.783 35.190 C 176.325 34.515,175.950 33.905,175.950 33.833 C 175.950 33.762,175.685 33.312,175.360 32.833 C 175.036 32.354,174.709 31.822,174.633 31.650 C 174.557 31.478,174.075 30.682,173.562 29.880 C 171.783 27.105,171.130 25.829,171.266 25.399 C 171.463 24.781,336.126 24.847,336.245 25.465 " stroke="none" fill="#646464" fill-rule="evenodd"></path></g></svg>